<?xml version="1.0" encoding="utf-8" standalone="yes"?>
<!DOCTYPE svg PUBLIC "-//W3C//DTD SVG 1.1//EN" "http://www.w3.org/Graphics/SVG/1.1/DTD/svg11.dtd">
<svg style="fill:none;stroke:none;fill-rule:evenodd;clip-rule:evenodd;stroke-linecap:round;stroke-linejoin:round;stroke-miterlimit:1.5;" version="1.1" xmlns="http://www.w3.org/2000/svg" xmlns:xlink="http://www.w3.org/1999/xlink" width="964" height="660" viewBox="0 0 964 660"><style class="text-font-style fontImports" data-font-family="Roboto">@import url(https://fonts.googleapis.com/css2?family=Roboto:wght@400;700&amp;amp;display=block);</style><g id="items" style="isolation: isolate"><g id="blend" style="mix-blend-mode: normal"><g id="g-root-cp_1-1_g-1-1_v2zy6b8yiy9z-fill" data-item-order="-516606" transform="translate(110, 122)"><g id="cp_1-1_g-1-1_v2zy6b8yiy9z-fill-merged" stroke="none" fill="#4f82d5" fill-opacity="1"><g><path d="M10 23C10 29.075 14.925 34 21 34 H59C65.075 34 70 29.075 70 23 V21C70 14.925 65.075 10 59 10 H21C14.925 10 10 14.925 10 21 V23"></path></g></g></g><g id="g-root-cp_1-2_g-1-2_v2zy6b8yiya0-fill" data-item-order="-516570" transform="translate(74, 158)"><g id="cp_1-2_g-1-2_v2zy6b8yiya0-fill-merged" stroke="none" fill="#4f82d5" fill-opacity="1"><g><path d="M10 23C10 29.075 14.925 34 21 34 H95C101.075 34 106 29.075 106 23 V21C106 14.925 101.075 10 95 10 H21C14.925 10 10 14.925 10 21 V23"></path></g></g></g><g id="g-root-cp_1-3_g-1-3_qn6g1v8yiz29-fill" data-item-order="-516534" transform="translate(38, 194)"><g id="cp_1-3_g-1-3_qn6g1v8yiz29-fill-merged" stroke="none" fill="#4f82d5" fill-opacity="1"><g><path d="M10 23C10 29.075 14.925 34 21 34 H131C137.075 34 142 29.075 142 23 V21C142 14.925 137.075 10 131 10 H21C14.925 10 10 14.925 10 21 V23"></path></g></g></g><g id="g-root-cp_1-4_g-1-4_qn6g1v8yiz2a-fill" data-item-order="-516498" transform="translate(86, 230)"><g id="cp_1-4_g-1-4_qn6g1v8yiz2a-fill-merged" stroke="none" fill="#4f82d5" fill-opacity="1"><g><path d="M10 23C10 29.075 14.925 34 21 34 H83C89.075 34 94 29.075 94 23 V21C94 14.925 89.075 10 83 10 H21C14.925 10 10 14.925 10 21 V23"></path></g></g></g><g id="g-root-cp_1_g-1_hrjfsz8yizuz-fill" data-item-order="-516460" transform="translate(206, 166)"><g id="cp_1_g-1_hrjfsz8yizuz-fill-merged" stroke="none" fill="#4f82d5" fill-opacity="1"><g><path d="M10 39C10 47.284 16.716 54 25 54 H123C131.284 54 138 47.284 138 39 V25C138 16.716 131.284 10 123 10 H25C16.716 10 10 16.716 10 25 V39"></path></g></g></g><g id="g-root-cp_3-1_g-3-1_dbpxoj8yj0n8-fill" data-item-order="-516414" transform="translate(98, 302)"><g id="cp_3-1_g-3-1_dbpxoj8yj0n8-fill-merged" stroke="none" fill="#95bdff" fill-opacity="1"><g><path d="M10 23C10 29.075 14.925 34 21 34 H71C77.075 34 82 29.075 82 23 V21C82 14.925 77.075 10 71 10 H21C14.925 10 10 14.925 10 21 V23"></path></g></g></g><g id="g-root-cp_3-2_g-3-2_dbpxoj8yj0n9-fill" data-item-order="-516378" transform="translate(50, 338)"><g id="cp_3-2_g-3-2_dbpxoj8yj0n9-fill-merged" stroke="none" fill="#95bdff" fill-opacity="1"><g><path d="M10 35C10 41.075 14.925 46 21 46 H119C125.075 46 130 41.075 130 35 V21C130 14.925 125.075 10 119 10 H21C14.925 10 10 14.925 10 21 V35"></path></g></g></g><g id="g-root-cp_3-3_g-3-3_4gpeir8yiya6-fill" data-item-order="-516342" transform="translate(50, 386)"><g id="cp_3-3_g-3-3_4gpeir8yiya6-fill-merged" stroke="none" fill="#95bdff" fill-opacity="1"><g><path d="M10 23C10 29.075 14.925 34 21 34 H119C125.075 34 130 29.075 130 23 V21C130 14.925 125.075 10 119 10 H21C14.925 10 10 14.925 10 21 V23"></path></g></g></g><g id="g-root-cp_3-4_g-3-4_4gpeir8yiya7-fill" data-item-order="-516306" transform="translate(74, 422)"><g id="cp_3-4_g-3-4_4gpeir8yiya7-fill-merged" stroke="none" fill="#95bdff" fill-opacity="1"><g><path d="M10 35C10 41.075 14.925 46 21 46 H95C101.075 46 106 41.075 106 35 V21C106 14.925 101.075 10 95 10 H21C14.925 10 10 14.925 10 21 V35"></path></g></g></g><g id="g-root-cp_3-5_g-3-5_vweb8yiz2g-fill" data-item-order="-516270" transform="translate(98, 470)"><g id="cp_3-5_g-3-5_vweb8yiz2g-fill-merged" stroke="none" fill="#95bdff" fill-opacity="1"><g><path d="M10 23C10 29.075 14.925 34 21 34 H71C77.075 34 82 29.075 82 23 V21C82 14.925 77.075 10 71 10 H21C14.925 10 10 14.925 10 21 V23"></path></g></g></g><g id="g-root-cp_3-6_g-3-6_vweb8yiz2h-fill" data-item-order="-516234" transform="translate(62, 506)"><g id="cp_3-6_g-3-6_vweb8yiz2h-fill-merged" stroke="none" fill="#95bdff" fill-opacity="1"><g><path d="M10 23C10 29.075 14.925 34 21 34 H107C113.075 34 118 29.075 118 23 V21C118 14.925 113.075 10 107 10 H21C14.925 10 10 14.925 10 21 V23"></path></g></g></g><g id="g-root-cp_3-7_g-3-7_1um6g8z8yiznm-fill" data-item-order="-516198" transform="translate(86, 542)"><g id="cp_3-7_g-3-7_1um6g8z8yiznm-fill-merged" stroke="none" fill="#95bdff" fill-opacity="1"><g><path d="M10 23C10 29.075 14.925 34 21 34 H83C89.075 34 94 29.075 94 23 V21C94 14.925 89.075 10 83 10 H21C14.925 10 10 14.925 10 21 V23"></path></g></g></g><g id="g-root-cp_3_g-3_1lqjg038yj0gb-fill" data-item-order="-516160" transform="translate(206, 412)"><g id="cp_3_g-3_1lqjg038yj0gb-fill-merged" stroke="none" fill="#95bdff" fill-opacity="1"><g><path d="M10 39C10 47.284 16.716 54 25 54 H123C131.284 54 138 47.284 138 39 V25C138 16.716 131.284 10 123 10 H25C16.716 10 10 16.716 10 25 V39"></path></g></g></g><g id="g-root-cp_start_g-start_1lqjg038yj0gc-fill" data-item-order="-516118" transform="translate(430, 314)"><g id="cp_start_g-start_1lqjg038yj0gc-fill-merged" stroke="none" fill="#4f92ff" fill-opacity="1"><g><path d="M10 53C10 62.389 17.611 70 27 70 H101C110.389 70 118 62.389 118 53 V27C118 17.611 110.389 10 101 10 H27C17.611 10 10 17.611 10 27 V53"></path></g></g></g><g id="g-root-cp_2_g-2_1hapxvn8yj18l-fill" data-item-order="-516072" transform="translate(634, 322)"><g id="cp_2_g-2_1hapxvn8yj18l-fill-merged" stroke="none" fill="#4e8ff7" fill-opacity="1"><g><path d="M10 39C10 47.284 16.716 54 25 54 H99C107.284 54 114 47.284 114 39 V25C114 16.716 107.284 10 99 10 H25C16.716 10 10 16.716 10 25 V39"></path></g></g></g><g id="g-root-cp_2-1_g-2-1_1hapxvn8yj18m-fill" data-item-order="-516030" transform="translate(774, 272)"><g id="cp_2-1_g-2-1_1hapxvn8yj18m-fill-merged" stroke="none" fill="#4e8ff7" fill-opacity="1"><g><path d="M10 35C10 41.075 14.925 46 21 46 H119C125.075 46 130 41.075 130 35 V21C130 14.925 125.075 10 119 10 H21C14.925 10 10 14.925 10 21 V35"></path></g></g></g><g id="g-root-cp_2-2_g-2-2_18fpepv8yiyvj-fill" data-item-order="-515994" transform="translate(774, 320)"><g id="cp_2-2_g-2-2_18fpepv8yiyvj-fill-merged" stroke="none" fill="#4e8ff7" fill-opacity="1"><g><path d="M10 23C10 29.075 14.925 34 21 34 H119C125.075 34 130 29.075 130 23 V21C130 14.925 125.075 10 119 10 H21C14.925 10 10 14.925 10 21 V23"></path></g></g></g><g id="g-root-cp_2-3_g-2-3_1cviwub8yiyv4-fill" data-item-order="-515958" transform="translate(774, 356)"><g id="cp_2-3_g-2-3_1cviwub8yiyv4-fill-merged" stroke="none" fill="#4e8ff7" fill-opacity="1"><g><path d="M10 23C10 29.075 14.925 34 21 34 H107C113.075 34 118 29.075 118 23 V21C118 14.925 113.075 10 107 10 H21C14.925 10 10 14.925 10 21 V23"></path></g></g></g><g id="g-root-cp_2-4_g-2-4_13zvwlf8yiznt-fill" data-item-order="-515922" transform="translate(774, 392)"><g id="cp_2-4_g-2-4_13zvwlf8yiznt-fill-merged" stroke="none" fill="#4e8ff7" fill-opacity="1"><g><path d="M10 23C10 29.075 14.925 34 21 34 H83C89.075 34 94 29.075 94 23 V21C94 14.925 89.075 10 83 10 H21C14.925 10 10 14.925 10 21 V23"></path></g></g></g><g id="g-root-he_13zvwlf8yiznv-fill" data-item-order="-515881" transform="translate(334, 188)"></g><g id="g-root-he_zk2egz8yj0g5-fill" data-item-order="-515879" transform="translate(538, 344)"></g><g id="g-root-he_zk2egz8yj0g7-fill" data-item-order="-515877" transform="translate(170, 134)"></g><g id="g-root-he_zk2egz8yj0g9-fill" data-item-order="-515875" transform="translate(738, 290)"></g><g id="g-root-he_zk2egz8yj0gb-fill" data-item-order="-515873" transform="translate(170, 314)"></g><g id="g-root-tx_wiretran_mg3l4z8ykdty-fill" data-item-order="0" transform="translate(442, 326)"><g id="tx_wiretran_mg3l4z8ykdty-fill-merged" stroke="none" fill="#ffffff" fill-opacity="1"><g><text style="font: bold 12px Roboto, sans-serif; white-space: pre;" transform="translate(52, 28)" font-weight="bold" font-size="12px" font-family="Roboto, sans-serif"><tspan x="-37.84" y="0" dominant-baseline="ideographic">Wire Transfer </tspan><tspan x="-23.39" y="14" dominant-baseline="ideographic">Process</tspan></text></g></g></g><g id="g-root-tx_paymenti_v4vdfn8ykdts-fill" data-item-order="0" transform="translate(56, 344)"><g id="tx_paymenti_v4vdfn8ykdts-fill-merged" stroke="none" fill="#ffffff" fill-opacity="1"><g><text style="font: 10.5px Roboto, sans-serif; white-space: pre;" transform="translate(118, 22)" font-size="10.5px" font-family="Roboto, sans-serif"><tspan x="-95.91" y="0" dominant-baseline="ideographic">Payment Instruction </tspan><tspan x="-44.91" y="12" dominant-baseline="ideographic">Emission</tspan></text></g></g></g><g id="g-root-tx_domestic_1cxec3n8ylrt4-fill" data-item-order="0" transform="translate(644, 332)"><g id="tx_domestic_1cxec3n8ylrt4-fill-merged" stroke="none" fill="#ffffff" fill-opacity="1"><g><text style="font: bold 12px Roboto, sans-serif; white-space: pre;" transform="translate(10, 22)" font-weight="bold" font-size="12px" font-family="Roboto, sans-serif"><tspan x="2" y="7" dominant-baseline="ideographic">Domestic Flow</tspan></text></g></g></g><g id="g-root-tx_clearing_hvaabn8ylslg-fill" data-item-order="0" transform="translate(780, 326)"><g id="tx_clearing_hvaabn8ylslg-fill-merged" stroke="none" fill="#ffffff" fill-opacity="1"><g><text style="font: 10.5px Roboto, sans-serif; white-space: pre;" transform="translate(10, 16)" font-size="10.5px" font-family="Roboto, sans-serif"><tspan x="2" y="6" dominant-baseline="ideographic">Clearing &amp; Settlement</tspan></text></g></g></g><g id="g-root-tx_fxpricin_1q6zf7n8ykd1e-fill" data-item-order="0" transform="translate(104, 308)"><g id="tx_fxpricin_1q6zf7n8ykd1e-fill-merged" stroke="none" fill="#ffffff" fill-opacity="1"><g><text style="font: 10.5px Roboto, sans-serif; white-space: pre;" transform="translate(70, 16)" font-size="10.5px" font-family="Roboto, sans-serif"><tspan x="-49.48" y="6" dominant-baseline="ideographic">FX Pricing</tspan></text></g></g></g><g id="g-root-tx_creditbe_8zna2r8ylte6-fill" data-item-order="0" transform="translate(780, 362)"><g id="tx_creditbe_8zna2r8ylte6-fill-merged" stroke="none" fill="#ffffff" fill-opacity="1"><g><text style="font: 10.5px Roboto, sans-serif; white-space: pre;" transform="translate(10, 16)" font-size="10.5px" font-family="Roboto, sans-serif"><tspan x="2" y="6" dominant-baseline="ideographic">Credit Beneficiary</tspan></text></g></g></g><g id="g-root-tx_paymenti_v64blv8ylu6a-fill" data-item-order="0" transform="translate(780, 278)"><g id="tx_paymenti_v64blv8ylu6a-fill-merged" stroke="none" fill="#ffffff" fill-opacity="1"><g><text style="font: 10.5px Roboto, sans-serif; white-space: pre;" transform="translate(10, 22)" font-size="10.5px" font-family="Roboto, sans-serif"><tspan x="2" y="0" dominant-baseline="ideographic">Payment Instruction </tspan><tspan x="2" y="12" dominant-baseline="ideographic">Emission</tspan></text></g></g></g><g id="g-root-tx_intermed_8yebwj8ykd1o-fill" data-item-order="0" transform="translate(56, 392)"><g id="tx_intermed_8yebwj8ykd1o-fill-merged" stroke="none" fill="#ffffff" fill-opacity="1"><g><text style="font: 10.5px Roboto, sans-serif; white-space: pre;" transform="translate(118, 16)" font-size="10.5px" font-family="Roboto, sans-serif"><tspan x="-99.34" y="6" dominant-baseline="ideographic">Intermediary Routing</tspan></text></g></g></g><g id="g-root-tx_cutoffch_13ymyf78ykd8o-fill" data-item-order="0" transform="translate(92, 236)"><g id="tx_cutoffch_13ymyf78ykd8o-fill-merged" stroke="none" fill="#ffffff" fill-opacity="1"><g><text style="font: 10.5px Roboto, sans-serif; white-space: pre;" transform="translate(82, 16)" font-size="10.5px" font-family="Roboto, sans-serif"><tspan x="-62.86" y="6" dominant-baseline="ideographic">Cutoff Check</tspan></text></g></g></g><g id="g-root-tx_complian_1uux3gj8yiyo2-fill" data-item-order="0" transform="translate(44, 200)"><g id="tx_complian_1uux3gj8yiyo2-fill-merged" stroke="none" fill="#ffffff" fill-opacity="1"><g><text style="font: 10.5px Roboto, sans-serif; white-space: pre;" transform="translate(130, 16)" font-size="10.5px" font-family="Roboto, sans-serif"><tspan x="-106.59" y="6" dominant-baseline="ideographic">Compliance Screening</tspan></text></g></g></g><g id="g-root-tx_notifica_4mqwz8ylrsw-fill" data-item-order="0" transform="translate(780, 398)"><g id="tx_notifica_4mqwz8ylrsw-fill-merged" stroke="none" fill="#ffffff" fill-opacity="1"><g><text style="font: 10.5px Roboto, sans-serif; white-space: pre;" transform="translate(10, 16)" font-size="10.5px" font-family="Roboto, sans-serif"><tspan x="2" y="6" dominant-baseline="ideographic">Notifications</tspan></text></g></g></g><g id="g-root-tx_commonop_m7cxxf8ykflw-fill" data-item-order="0" transform="translate(216, 176)"><g id="tx_commonop_m7cxxf8ykflw-fill-merged" stroke="none" fill="#ffffff" fill-opacity="1"><g><text style="font: bold 12px Roboto, sans-serif; white-space: pre;" transform="translate(118, 22)" font-weight="bold" font-size="12px" font-family="Roboto, sans-serif"><tspan x="-98.91" y="7" dominant-baseline="ideographic">Common Opening</tspan></text></g></g></g><g id="g-root-tx_receivin_1lt1ccj8ykcua-fill" data-item-order="0" transform="translate(80, 428)"><g id="tx_receivin_1lt1ccj8ykcua-fill-merged" stroke="none" fill="#ffffff" fill-opacity="1"><g><text style="font: 10.5px Roboto, sans-serif; white-space: pre;" transform="translate(94, 22)" font-size="10.5px" font-family="Roboto, sans-serif"><tspan x="-72.97" y="0" dominant-baseline="ideographic">Receiving Bank </tspan><tspan x="-48.38" y="12" dominant-baseline="ideographic">Screening</tspan></text></g></g></g><g id="g-root-tx_notifica_1qa3sn78yke8e-fill" data-item-order="0" transform="translate(92, 548)"><g id="tx_notifica_1qa3sn78yke8e-fill-merged" stroke="none" fill="#ffffff" fill-opacity="1"><g><text style="font: 10.5px Roboto, sans-serif; white-space: pre;" transform="translate(82, 16)" font-size="10.5px" font-family="Roboto, sans-serif"><tspan x="-61.7" y="6" dominant-baseline="ideographic">Notifications</tspan></text></g></g></g><g id="g-root-tx_authenti_dkgkw38yiznq-fill" data-item-order="0" transform="translate(80, 164)"><g id="tx_authenti_dkgkw38yiznq-fill-merged" stroke="none" fill="#ffffff" fill-opacity="1"><g><text style="font: 10.5px Roboto, sans-serif; white-space: pre;" transform="translate(94, 16)" font-size="10.5px" font-family="Roboto, sans-serif"><tspan x="-70.14" y="6" dominant-baseline="ideographic">Authentication</tspan></text></g></g></g><g id="g-root-tx_settleme_zlxtqb8ykf7x-fill" data-item-order="0" transform="translate(104, 476)"><g id="tx_settleme_zlxtqb8ykf7x-fill-merged" stroke="none" fill="#ffffff" fill-opacity="1"><g><text style="font: 10.5px Roboto, sans-serif; white-space: pre;" transform="translate(70, 16)" font-size="10.5px" font-family="Roboto, sans-serif"><tspan x="-52.8" y="6" dominant-baseline="ideographic">Settlement</tspan></text></g></g></g><g id="g-root-tx_initiati_18mkmo38yiyvc-fill" data-item-order="0" transform="translate(116, 128)"><g id="tx_initiati_18mkmo38yiyvc-fill-merged" stroke="none" fill="#ffffff" fill-opacity="1"><g><text style="font: 10.5px Roboto, sans-serif; white-space: pre;" transform="translate(58, 16)" font-size="10.5px" font-family="Roboto, sans-serif"><tspan x="-42.69" y="6" dominant-baseline="ideographic">Initiation</tspan></text></g></g></g><g id="g-root-tx_creditbe_qqxakj8ykdmo-fill" data-item-order="0" transform="translate(68, 512)"><g id="tx_creditbe_qqxakj8ykdmo-fill-merged" stroke="none" fill="#ffffff" fill-opacity="1"><g><text style="font: 10.5px Roboto, sans-serif; white-space: pre;" transform="translate(106, 16)" font-size="10.5px" font-family="Roboto, sans-serif"><tspan x="-84.05" y="6" dominant-baseline="ideographic">Credit Beneficiary</tspan></text></g></g></g><g id="g-root-tx_wiretran_1qd862r8yiznw-fill" data-item-order="0" transform="translate(244, 38)"><g id="tx_wiretran_1qd862r8yiznw-fill-merged" stroke="none" fill="#484848" fill-opacity="1"><g><text style="font: bold 20px Roboto, sans-serif; white-space: pre;" transform="translate(238, 22)" font-weight="bold" font-size="20px" font-family="Roboto, sans-serif"><tspan x="-225.73" y="11.5" dominant-baseline="ideographic">Wire Transfer Process: Domestic vs. Cross-Border</tspan></text></g></g></g><g id="g-root-tx_crossbor_146r4jn8ykemj-fill" data-item-order="0" transform="translate(216, 422)"><g id="tx_crossbor_146r4jn8ykemj-fill-merged" stroke="none" fill="#ffffff" fill-opacity="1"><g><text style="font: bold 12px Roboto, sans-serif; white-space: pre;" transform="translate(118, 22)" font-weight="bold" font-size="12px" font-family="Roboto, sans-serif"><tspan x="-102.58" y="7" dominant-baseline="ideographic">Cross-Border Flow</tspan></text></g></g></g><g id="g-root-cp_1-1_g-1-1_v2zy6b8yiy9z-stroke" data-item-order="-516606" transform="translate(110, 122)"><g id="cp_1-1_g-1-1_v2zy6b8yiy9z-stroke" fill="none" stroke-linecap="round" stroke-linejoin="round" stroke-miterlimit="4" stroke="#ffffff" stroke-width="1" stroke-opacity="1"><g><path d="M 21 10C 14.9249 10 10 14.9249 10 21M 59 10L 21 10M 70 23C 70 29.0751 65.0751 34 59 34M 59 10C 65.0751 10 70 14.9249 70 21M 10 23L 10 21M 70 23L 70 21M 21 34L 59 34M 21 34C 14.9249 34 10 29.0751 10 23"></path></g></g></g><g id="g-root-cp_1-2_g-1-2_v2zy6b8yiya0-stroke" data-item-order="-516570" transform="translate(74, 158)"><g id="cp_1-2_g-1-2_v2zy6b8yiya0-stroke" fill="none" stroke-linecap="round" stroke-linejoin="round" stroke-miterlimit="4" stroke="#ffffff" stroke-width="1" stroke-opacity="1"><g><path d="M 21 10C 14.9249 10 10 14.9249 10 21M 95 10L 21 10M 106 23C 106 29.0751 101.0751 34 95 34M 95 10C 101.0751 10 106 14.9249 106 21M 10 23L 10 21M 106 23L 106 21M 21 34L 95 34M 21 34C 14.9249 34 10 29.0751 10 23"></path></g></g></g><g id="g-root-cp_1-3_g-1-3_qn6g1v8yiz29-stroke" data-item-order="-516534" transform="translate(38, 194)"><g id="cp_1-3_g-1-3_qn6g1v8yiz29-stroke" fill="none" stroke-linecap="round" stroke-linejoin="round" stroke-miterlimit="4" stroke="#ffffff" stroke-width="1" stroke-opacity="1"><g><path d="M 21 10C 14.9249 10 10 14.9249 10 21M 131 10L 21 10M 142 23C 142 29.0751 137.0751 34 131 34M 131 10C 137.0751 10 142 14.9249 142 21M 10 23L 10 21M 142 23L 142 21M 21 34L 131 34M 21 34C 14.9249 34 10 29.0751 10 23"></path></g></g></g><g id="g-root-cp_1-4_g-1-4_qn6g1v8yiz2a-stroke" data-item-order="-516498" transform="translate(86, 230)"><g id="cp_1-4_g-1-4_qn6g1v8yiz2a-stroke" fill="none" stroke-linecap="round" stroke-linejoin="round" stroke-miterlimit="4" stroke="#ffffff" stroke-width="1" stroke-opacity="1"><g><path d="M 21 10C 14.9249 10 10 14.9249 10 21M 83 10L 21 10M 94 23C 94 29.0751 89.0751 34 83 34M 83 10C 89.0751 10 94 14.9249 94 21M 10 23L 10 21M 94 23L 94 21M 21 34L 83 34M 21 34C 14.9249 34 10 29.0751 10 23"></path></g></g></g><g id="g-root-cp_1_g-1_hrjfsz8yizuz-stroke" data-item-order="-516460" transform="translate(206, 166)"><g id="cp_1_g-1_hrjfsz8yizuz-stroke" fill="none" stroke-linecap="round" stroke-linejoin="round" stroke-miterlimit="4" stroke="#ffffff" stroke-width="1" stroke-opacity="1"><g><path d="M 25 10C 16.7157 10 10 16.7157 10 25M 123 10L 25 10M 138 39C 138 47.2843 131.2843 54 123 54M 123 10C 131.2843 10 138 16.7157 138 25M 10 39L 10 25M 138 39L 138 25M 25 54L 123 54M 25 54C 16.7157 54 10 47.2843 10 39"></path></g></g></g><g id="g-root-cp_3-1_g-3-1_dbpxoj8yj0n8-stroke" data-item-order="-516414" transform="translate(98, 302)"><g id="cp_3-1_g-3-1_dbpxoj8yj0n8-stroke" fill="none" stroke-linecap="round" stroke-linejoin="round" stroke-miterlimit="4" stroke="#ffffff" stroke-width="1" stroke-opacity="1"><g><path d="M 21 10C 14.9249 10 10 14.9249 10 21M 71 10L 21 10M 82 23C 82 29.0751 77.0751 34 71 34M 71 10C 77.0751 10 82 14.9249 82 21M 10 23L 10 21M 82 23L 82 21M 21 34L 71 34M 21 34C 14.9249 34 10 29.0751 10 23"></path></g></g></g><g id="g-root-cp_3-2_g-3-2_dbpxoj8yj0n9-stroke" data-item-order="-516378" transform="translate(50, 338)"><g id="cp_3-2_g-3-2_dbpxoj8yj0n9-stroke" fill="none" stroke-linecap="round" stroke-linejoin="round" stroke-miterlimit="4" stroke="#ffffff" stroke-width="1" stroke-opacity="1"><g><path d="M 21 10C 14.9249 10 10 14.9249 10 21M 119 10L 21 10M 130 35C 130 41.0751 125.0751 46 119 46M 119 10C 125.0751 10 130 14.9249 130 21M 10 35L 10 21M 130 35L 130 21M 21 46L 119 46M 21 46C 14.9249 46 10 41.0751 10 35"></path></g></g></g><g id="g-root-cp_3-3_g-3-3_4gpeir8yiya6-stroke" data-item-order="-516342" transform="translate(50, 386)"><g id="cp_3-3_g-3-3_4gpeir8yiya6-stroke" fill="none" stroke-linecap="round" stroke-linejoin="round" stroke-miterlimit="4" stroke="#ffffff" stroke-width="1" stroke-opacity="1"><g><path d="M 21 10C 14.9249 10 10 14.9249 10 21M 119 10L 21 10M 130 23C 130 29.0751 125.0751 34 119 34M 119 10C 125.0751 10 130 14.9249 130 21M 10 23L 10 21M 130 23L 130 21M 21 34L 119 34M 21 34C 14.9249 34 10 29.0751 10 23"></path></g></g></g><g id="g-root-cp_3-4_g-3-4_4gpeir8yiya7-stroke" data-item-order="-516306" transform="translate(74, 422)"><g id="cp_3-4_g-3-4_4gpeir8yiya7-stroke" fill="none" stroke-linecap="round" stroke-linejoin="round" stroke-miterlimit="4" stroke="#ffffff" stroke-width="1" stroke-opacity="1"><g><path d="M 21 10C 14.9249 10 10 14.9249 10 21M 95 10L 21 10M 106 35C 106 41.0751 101.0751 46 95 46M 95 10C 101.0751 10 106 14.9249 106 21M 10 35L 10 21M 106 35L 106 21M 21 46L 95 46M 21 46C 14.9249 46 10 41.0751 10 35"></path></g></g></g><g id="g-root-cp_3-5_g-3-5_vweb8yiz2g-stroke" data-item-order="-516270" transform="translate(98, 470)"><g id="cp_3-5_g-3-5_vweb8yiz2g-stroke" fill="none" stroke-linecap="round" stroke-linejoin="round" stroke-miterlimit="4" stroke="#ffffff" stroke-width="1" stroke-opacity="1"><g><path d="M 21 10C 14.9249 10 10 14.9249 10 21M 71 10L 21 10M 82 23C 82 29.0751 77.0751 34 71 34M 71 10C 77.0751 10 82 14.9249 82 21M 10 23L 10 21M 82 23L 82 21M 21 34L 71 34M 21 34C 14.9249 34 10 29.0751 10 23"></path></g></g></g><g id="g-root-cp_3-6_g-3-6_vweb8yiz2h-stroke" data-item-order="-516234" transform="translate(62, 506)"><g id="cp_3-6_g-3-6_vweb8yiz2h-stroke" fill="none" stroke-linecap="round" stroke-linejoin="round" stroke-miterlimit="4" stroke="#ffffff" stroke-width="1" stroke-opacity="1"><g><path d="M 21 10C 14.9249 10 10 14.9249 10 21M 107 10L 21 10M 118 23C 118 29.0751 113.0751 34 107 34M 107 10C 113.0751 10 118 14.9249 118 21M 10 23L 10 21M 118 23L 118 21M 21 34L 107 34M 21 34C 14.9249 34 10 29.0751 10 23"></path></g></g></g><g id="g-root-cp_3-7_g-3-7_1um6g8z8yiznm-stroke" data-item-order="-516198" transform="translate(86, 542)"><g id="cp_3-7_g-3-7_1um6g8z8yiznm-stroke" fill="none" stroke-linecap="round" stroke-linejoin="round" stroke-miterlimit="4" stroke="#ffffff" stroke-width="1" stroke-opacity="1"><g><path d="M 21 10C 14.9249 10 10 14.9249 10 21M 83 10L 21 10M 94 23C 94 29.0751 89.0751 34 83 34M 83 10C 89.0751 10 94 14.9249 94 21M 10 23L 10 21M 94 23L 94 21M 21 34L 83 34M 21 34C 14.9249 34 10 29.0751 10 23"></path></g></g></g><g id="g-root-cp_3_g-3_1lqjg038yj0gb-stroke" data-item-order="-516160" transform="translate(206, 412)"><g id="cp_3_g-3_1lqjg038yj0gb-stroke" fill="none" stroke-linecap="round" stroke-linejoin="round" stroke-miterlimit="4" stroke="#ffffff" stroke-width="1" stroke-opacity="1"><g><path d="M 25 10C 16.7157 10 10 16.7157 10 25M 123 10L 25 10M 138 39C 138 47.2843 131.2843 54 123 54M 123 10C 131.2843 10 138 16.7157 138 25M 10 39L 10 25M 138 39L 138 25M 25 54L 123 54M 25 54C 16.7157 54 10 47.2843 10 39"></path></g></g></g><g id="g-root-cp_start_g-start_1lqjg038yj0gc-stroke" data-item-order="-516118" transform="translate(430, 314)"><g id="cp_start_g-start_1lqjg038yj0gc-stroke" fill="none" stroke-linecap="round" stroke-linejoin="round" stroke-miterlimit="4" stroke="#ffffff" stroke-width="1" stroke-opacity="1"><g><path d="M 27 10C 17.6112 10 10 17.6112 10 27M 101 10L 27 10M 118 53C 118 62.3888 110.3888 70 101 70M 101 10C 110.3888 10 118 17.6112 118 27M 10 53L 10 27M 118 53L 118 27M 27 70L 101 70M 27 70C 17.6112 70 10 62.3888 10 53"></path></g></g></g><g id="g-root-cp_2_g-2_1hapxvn8yj18l-stroke" data-item-order="-516072" transform="translate(634, 322)"><g id="cp_2_g-2_1hapxvn8yj18l-stroke" fill="none" stroke-linecap="round" stroke-linejoin="round" stroke-miterlimit="4" stroke="#ffffff" stroke-width="1" stroke-opacity="1"><g><path d="M 25 10C 16.7157 10 10 16.7157 10 25M 99 10L 25 10M 114 39C 114 47.2843 107.2843 54 99 54M 99 10C 107.2843 10 114 16.7157 114 25M 10 39L 10 25M 114 39L 114 25M 25 54L 99 54M 25 54C 16.7157 54 10 47.2843 10 39"></path></g></g></g><g id="g-root-cp_2-1_g-2-1_1hapxvn8yj18m-stroke" data-item-order="-516030" transform="translate(774, 272)"><g id="cp_2-1_g-2-1_1hapxvn8yj18m-stroke" fill="none" stroke-linecap="round" stroke-linejoin="round" stroke-miterlimit="4" stroke="#ffffff" stroke-width="1" stroke-opacity="1"><g><path d="M 21 10C 14.9249 10 10 14.9249 10 21M 119 10L 21 10M 130 35C 130 41.0751 125.0751 46 119 46M 119 10C 125.0751 10 130 14.9249 130 21M 10 35L 10 21M 130 35L 130 21M 21 46L 119 46M 21 46C 14.9249 46 10 41.0751 10 35"></path></g></g></g><g id="g-root-cp_2-2_g-2-2_18fpepv8yiyvj-stroke" data-item-order="-515994" transform="translate(774, 320)"><g id="cp_2-2_g-2-2_18fpepv8yiyvj-stroke" fill="none" stroke-linecap="round" stroke-linejoin="round" stroke-miterlimit="4" stroke="#ffffff" stroke-width="1" stroke-opacity="1"><g><path d="M 21 10C 14.9249 10 10 14.9249 10 21M 119 10L 21 10M 130 23C 130 29.0751 125.0751 34 119 34M 119 10C 125.0751 10 130 14.9249 130 21M 10 23L 10 21M 130 23L 130 21M 21 34L 119 34M 21 34C 14.9249 34 10 29.0751 10 23"></path></g></g></g><g id="g-root-cp_2-3_g-2-3_1cviwub8yiyv4-stroke" data-item-order="-515958" transform="translate(774, 356)"><g id="cp_2-3_g-2-3_1cviwub8yiyv4-stroke" fill="none" stroke-linecap="round" stroke-linejoin="round" stroke-miterlimit="4" stroke="#ffffff" stroke-width="1" stroke-opacity="1"><g><path d="M 21 10C 14.9249 10 10 14.9249 10 21M 107 10L 21 10M 118 23C 118 29.0751 113.0751 34 107 34M 107 10C 113.0751 10 118 14.9249 118 21M 10 23L 10 21M 118 23L 118 21M 21 34L 107 34M 21 34C 14.9249 34 10 29.0751 10 23"></path></g></g></g><g id="g-root-cp_2-4_g-2-4_13zvwlf8yiznt-stroke" data-item-order="-515922" transform="translate(774, 392)"><g id="cp_2-4_g-2-4_13zvwlf8yiznt-stroke" fill="none" stroke-linecap="round" stroke-linejoin="round" stroke-miterlimit="4" stroke="#ffffff" stroke-width="1" stroke-opacity="1"><g><path d="M 21 10C 14.9249 10 10 14.9249 10 21M 83 10L 21 10M 94 23C 94 29.0751 89.0751 34 83 34M 83 10C 89.0751 10 94 14.9249 94 21M 10 23L 10 21M 94 23L 94 21M 21 34L 83 34M 21 34C 14.9249 34 10 29.0751 10 23"></path></g></g></g><g id="g-root-he_13zvwlf8yiznv-stroke" data-item-order="-515881" transform="translate(334, 188)"><g id="he_13zvwlf8yiznv-stroke" fill="none" stroke-linecap="round" stroke-linejoin="round" stroke-miterlimit="4" stroke="#484848" stroke-width="1" stroke-opacity="1"><g><path d="M 100 156.25L 16 19.75M 100 171.625L 16 250.375"></path></g></g></g><g id="g-root-he_zk2egz8yj0g5-stroke" data-item-order="-515879" transform="translate(538, 344)"><g id="he_zk2egz8yj0g5-stroke" fill="none" stroke-linecap="round" stroke-linejoin="round" stroke-miterlimit="4" stroke="#484848" stroke-width="1" stroke-opacity="1"><g><path d="M 16 10L 100 10"></path></g></g></g><g id="g-root-he_zk2egz8yj0g7-stroke" data-item-order="-515877" transform="translate(170, 134)"><g id="he_zk2egz8yj0g7-stroke" fill="none" stroke-linecap="round" stroke-linejoin="round" stroke-miterlimit="4" stroke="#484848" stroke-width="1" stroke-opacity="1"><g><path d="M 40 55L 16 19M 40 61L 16 49M 40 67L 16 79M 40 73L 16 109"></path></g></g></g><g id="g-root-he_zk2egz8yj0g9-stroke" data-item-order="-515875" transform="translate(738, 290)"><g id="he_zk2egz8yj0g9-stroke" fill="none" stroke-linecap="round" stroke-linejoin="round" stroke-miterlimit="4" stroke="#484848" stroke-width="1" stroke-opacity="1"><g><path d="M 16 55L 40 19M 16 62L 40 54M 16 68L 40 84M 16 74L 40 114"></path></g></g></g><g id="g-root-he_zk2egz8yj0gb-stroke" data-item-order="-515873" transform="translate(170, 314)"><g id="he_zk2egz8yj0gb-stroke" fill="none" stroke-linecap="round" stroke-linejoin="round" stroke-miterlimit="4" stroke="#484848" stroke-width="1" stroke-opacity="1"><g><path d="M 40 110L 16 30M 40 117L 16 65M 40 124L 16 100M 40 131L 16 135M 40 138L 16 170M 40 144L 16 200M 40 150L 16 230"></path></g></g></g><g id="g-root-tx_wiretran_mg3l4z8ykdty-stroke" data-item-order="0" transform="translate(442, 326)"></g><g id="g-root-tx_paymenti_v4vdfn8ykdts-stroke" data-item-order="0" transform="translate(56, 344)"></g><g id="g-root-tx_domestic_1cxec3n8ylrt4-stroke" data-item-order="0" transform="translate(644, 332)"></g><g id="g-root-tx_clearing_hvaabn8ylslg-stroke" data-item-order="0" transform="translate(780, 326)"></g><g id="g-root-tx_fxpricin_1q6zf7n8ykd1e-stroke" data-item-order="0" transform="translate(104, 308)"></g><g id="g-root-tx_creditbe_8zna2r8ylte6-stroke" data-item-order="0" transform="translate(780, 362)"></g><g id="g-root-tx_paymenti_v64blv8ylu6a-stroke" data-item-order="0" transform="translate(780, 278)"></g><g id="g-root-tx_intermed_8yebwj8ykd1o-stroke" data-item-order="0" transform="translate(56, 392)"></g><g id="g-root-tx_cutoffch_13ymyf78ykd8o-stroke" data-item-order="0" transform="translate(92, 236)"></g><g id="g-root-tx_complian_1uux3gj8yiyo2-stroke" data-item-order="0" transform="translate(44, 200)"></g><g id="g-root-tx_notifica_4mqwz8ylrsw-stroke" data-item-order="0" transform="translate(780, 398)"></g><g id="g-root-tx_commonop_m7cxxf8ykflw-stroke" data-item-order="0" transform="translate(216, 176)"></g><g id="g-root-tx_receivin_1lt1ccj8ykcua-stroke" data-item-order="0" transform="translate(80, 428)"></g><g id="g-root-tx_notifica_1qa3sn78yke8e-stroke" data-item-order="0" transform="translate(92, 548)"></g><g id="g-root-tx_authenti_dkgkw38yiznq-stroke" data-item-order="0" transform="translate(80, 164)"></g><g id="g-root-tx_settleme_zlxtqb8ykf7x-stroke" data-item-order="0" transform="translate(104, 476)"></g><g id="g-root-tx_initiati_18mkmo38yiyvc-stroke" data-item-order="0" transform="translate(116, 128)"></g><g id="g-root-tx_creditbe_qqxakj8ykdmo-stroke" data-item-order="0" transform="translate(68, 512)"></g><g id="g-root-tx_wiretran_1qd862r8yiznw-stroke" data-item-order="0" transform="translate(244, 38)"></g><g id="g-root-tx_crossbor_146r4jn8ykemj-stroke" data-item-order="0" transform="translate(216, 422)"></g></g></g><path id="wdhc14zamnl6v" d="M65.283 12.757a.35.35 0 0 0 .584.157l5.203-5.141-6.183 3.523.396 1.461zm-2.216-11.7a.35.35 0 0 0-.522.305v3.111l3.276-1.868-2.754-1.548zm3.728 2.105l-4.25 2.421v2.445l6.391-3.644-2.141-1.222zm4.708 3.303a.35.35 0 0 0 0-.609l-1.592-.9-7.365 4.199v1.782a.35.35 0 0 0 .523.305l8.435-4.777z M44.542 2.513c0-.433.355-.783.792-.783s.792.35.792.783-.355.783-.792.783-.792-.35-.792-.783zm59.171 0c0-.433.355-.783.792-.783s.792.35.792.783-.355.783-.792.783-.792-.35-.792-.783zm-85.951 7.636h-1.27v-.487c-.276.201-.864.609-1.881.609-1.202 0-2.274-.794-2.137-2.078.118-1.106 1.153-1.584 1.848-1.727l2.17-.345c0-.539-.29-.956-1.064-1.006s-1.21.305-1.571 1.017l-1.124-.605c1.218-2.631 5.029-1.764 5.029.414v4.207zm-1.27-2.86c.006.396-.062 1.112-.819 1.59-.587.37-1.841.299-1.903-.395-.049-.555.461-.791.906-.898l1.816-.297zm72.662 2.86h-1.27v-.487c-.276.201-.864.609-1.881.609-1.202 0-2.274-.794-2.137-2.078.118-1.106 1.153-1.584 1.848-1.727l2.17-.345c0-.539-.29-.956-1.064-1.006s-1.21.305-1.571 1.017l-1.124-.605c1.218-2.631 5.029-1.764 5.029.414v4.207zm-1.27-2.86c.006.396-.062 1.112-.82 1.59-.587.37-1.841.299-1.903-.395-.049-.555.461-.791.906-.898l1.816-.297zM99.096 10.149H97.85v-8.45h1.246v4.895l2.68-2.559h1.738l-2.633 2.535 2.715 3.578h-1.556l-2.077-2.707-.867.844v1.863zm6.053-6.114h-1.255v6.113h1.255V4.035zm-59.2 0h-1.255v6.113h1.255V4.035zm5.584 6.113V1.697h1.255v2.695c.361-.346 1-.485 1.47-.485 1.452 0 2.477 1.082 2.457 2.448v3.792h-1.27v-3.68c0-.408-.214-1.339-1.315-1.339-.968 0-1.342.756-1.342 1.339v3.681h-1.255zm-4.76-4.894V4.039h.621a.45.45 0 0 0 .45-.45v-.855h1.251v1.305h1.309v1.215h-1.309v3.109c0 .293.105.664.648.664.365 0 .531-.035.736-.07v1.137s-.361.113-.857.113c-1.398 0-1.777-1.051-1.777-1.788V5.254h-1.071zM36.528 4.039h-1.394l2.191 6.106h1.125l1.234-3.918 1.238 3.918h1.129l2.188-6.106h-1.383l-1.359 3.93-1.256-3.93h-1.124l-1.242 3.957-1.348-3.957zM26.212 7.141c-.02 1.566 1.187 3.129 3.223 3.129 1.566 0 2.383-.918 2.734-1.719L31.172 8c-.315.399-.801 1.094-1.738 1.094-1.145 0-1.825-.781-1.891-1.52h4.625c.074-.284.148-.995-.03-1.559-.336-1.064-1.221-2.102-2.839-2.102s-3.088 1.152-3.088 3.227zm1.363-.75h3.348c-.055-.43-.566-1.301-1.623-1.301a1.79 1.79 0 0 0-1.725 1.301zm-8.758.75c.038 1.758 1.277 3.133 3.145 3.133 1.074 0 1.723-.477 1.961-.672v.547h1.242V1.703h-1.258v2.888c-.414-.36-1.062-.68-1.93-.68-1.91 0-3.198 1.473-3.16 3.23zm1.309-.08c0 1.119.723 1.978 1.836 1.978a1.88 1.88 0 0 0 1.94-1.904c0-1.371-1.011-1.99-1.972-1.99s-1.805.798-1.805 1.916zm76.683-.028C96.771 5.275 95.532 3.9 93.664 3.9c-1.074 0-1.723.477-1.961.672v-.547h-1.242v8.22h1.258V9.583c.414.36 1.063.68 1.93.68 1.91 0 3.198-1.473 3.16-3.23zm-1.309.08c0-1.119-.723-1.978-1.836-1.978a1.88 1.88 0 0 0-1.94 1.904c0 1.371 1.011 1.99 1.972 1.99S95.5 8.231 95.5 7.113zM106.441 10.173V4.036h1.254v.382c.361-.346 1-.485 1.47-.485 1.452 0 2.477 1.082 2.457 2.448v3.792h-1.27V6.492c0-.408-.214-1.339-1.315-1.339-.969 0-1.342.756-1.342 1.339v3.681h-1.254zm-30.383-.021V1.824h1.084l4.215 5.777V1.824h1.32v8.328h-1.094l-4.207-5.796v5.796h-1.319zM5.24 10.149H4V2.377h1.014l2.664 3.597 2.654-3.592h1.03v7.766h-1.256V4.762L7.678 8.068 5.24 4.742v5.407z" transform="translate(828, 626)" fill="#80808088" stroke="none"></path></svg>